<svg xmlns="http://www.w3.org/2000/svg" width="512" height="408">
  <defs>
    <linearGradient id="bs-logo-a" x1="76.079" x2="523.48" y1="10.798" y2="365.945" gradientUnits="userSpaceOnUse">
      <stop stop-color="Orange"/>
      <stop offset="1" stop-color="#ff5e14"/>
    </linearGradient>
    <linearGradient id="bs-logo-b" x1="193.508" x2="293.514" y1="109.74" y2="278.872" gradientUnits="userSpaceOnUse">
      <stop stop-color="#fff"/>
      <stop offset="1" stop-color="#f1e5fc"/>
    </linearGradient>
    <filter xmlns="http://www.w3.org/2000/svg" id="bs-logo-c" width="197" height="249" x="161.901" y="83.457"
            color-interpolation-filters="sRGB" filterUnits="userSpaceOnUse">
      <feFlood flood-opacity="0" result="BackgroundImageFix"/>
      <feColorMatrix in="SourceAlpha" values="0 0 0 0 0 0 0 0 0 0 0 0 0 0 0 0 0 0 127 0"/>
      <feOffset dy="4"/>
      <feGaussianBlur stdDeviation="8"/>
      <feColorMatrix values="0 0 0 0 0 0 0 0 0 0 0 0 0 0 0 0 0 0 0.15 0"/>
      <feBlend in2="BackgroundImageFix" result="effect1_dropShadow"/>
      <feBlend in="SourceGraphic" in2="effect1_dropShadow" result="shape"/>
    </filter>
  </defs>
  <path fill="url(#bs-logo-a)"
        d="M56.481 53.32C55.515 25.58 77.128 0 106.342 0h299.353c29.214 0 50.827 25.58 49.861 53.32-.928 26.647.277 61.165 8.964 89.31 8.715 28.232 23.411 46.077 47.48 48.37v26c-24.069 2.293-38.765 20.138-47.48 48.37-8.687 28.145-9.892 62.663-8.964 89.311.966 27.739-20.647 53.319-49.861 53.319H106.342c-29.214 0-50.827-25.58-49.86-53.319.927-26.648-.278-61.166-8.966-89.311C38.802 237.138 24.07 219.293 0 217v-26c24.069-2.293 38.802-20.138 47.516-48.37 8.688-28.145 9.893-62.663 8.965-89.31z"/>
  <text x="250" y="250" font-size="250" fill="#fff" font-family="sans-serif" text-anchor="middle" alignment-baseline="middle">P</text>
</svg>
